<svg width="246" height="171" viewBox="0 0 246 171" fill="none" xmlns="http://www.w3.org/2000/svg">
<g clip-path="url(#clip0_77_2)">
<path d="M37.1875 5.375V14.75C37.1875 14.9986 37.0887 15.2371 36.9129 15.4129C36.7371 15.5887 36.4986 15.6875 36.25 15.6875C36.0014 15.6875 35.7629 15.5887 35.5871 15.4129C35.4113 15.2371 35.3125 14.9986 35.3125 14.75V11H29.0625V14.75C29.0625 14.9986 28.9637 15.2371 28.7879 15.4129C28.6121 15.5887 28.3736 15.6875 28.125 15.6875C27.8764 15.6875 27.6379 15.5887 27.4621 15.4129C27.2863 15.2371 27.1875 14.9986 27.1875 14.75V5.375C27.1875 5.12636 27.2863 4.8879 27.4621 4.71209C27.6379 4.53627 27.8764 4.4375 28.125 4.4375C28.3736 4.4375 28.6121 4.53627 28.7879 4.71209C28.9637 4.8879 29.0625 5.12636 29.0625 5.375V9.125H35.3125V5.375C35.3125 5.12636 35.4113 4.8879 35.5871 4.71209C35.7629 4.53627 36.0014 4.4375 36.25 4.4375C36.4986 4.4375 36.7371 4.53627 36.9129 4.71209C37.0887 4.8879 37.1875 5.12636 37.1875 5.375ZM43.75 16.3125H41.875L44.1203 13.318C44.3644 12.9941 44.5355 12.6212 44.622 12.225C44.7085 11.8287 44.7083 11.4185 44.6213 11.0223C44.5344 10.6262 44.3628 10.2536 44.1183 9.92995C43.8738 9.60635 43.5623 9.33945 43.205 9.14755C42.8477 8.95565 42.4531 8.8433 42.0483 8.81819C41.6435 8.79308 41.2381 8.85582 40.8598 9.00209C40.4815 9.14837 40.1394 9.37473 39.8568 9.66564C39.5742 9.95655 39.3579 10.3051 39.2227 10.6875C39.1398 10.9219 39.1534 11.1797 39.2606 11.4041C39.3678 11.6285 39.5597 11.8011 39.7941 11.884C40.0286 11.9669 40.2864 11.9532 40.5107 11.846C40.7351 11.7389 40.9077 11.5469 40.9906 11.3125C41.0222 11.2221 41.0678 11.1372 41.1258 11.0609C41.199 10.9602 41.2916 10.8751 41.3981 10.8106C41.5046 10.746 41.6229 10.7034 41.7461 10.685C41.8693 10.6667 41.9948 10.6731 42.1155 10.7039C42.2362 10.7346 42.3495 10.7891 42.4489 10.8642C42.5483 10.9392 42.6317 11.0333 42.6943 11.1409C42.757 11.2486 42.7975 11.3676 42.8136 11.4911C42.8297 11.6146 42.821 11.7401 42.7881 11.8602C42.7552 11.9803 42.6987 12.0926 42.6219 12.1906L39.25 16.6875C39.1455 16.8268 39.0819 16.9924 39.0663 17.1658C39.0507 17.3392 39.0836 17.5135 39.1615 17.6693C39.2393 17.825 39.359 17.956 39.5071 18.0475C39.6552 18.139 39.8259 18.1875 40 18.1875H43.75C43.9986 18.1875 44.2371 18.0887 44.4129 17.9129C44.5887 17.7371 44.6875 17.4986 44.6875 17.25C44.6875 17.0014 44.5887 16.7629 44.4129 16.5871C44.2371 16.4113 43.9986 16.3125 43.75 16.3125Z" fill="#343330"/>
<path d="M68.6875 15.0625C68.6876 15.6833 68.5027 16.29 68.1566 16.8054C67.8104 17.3207 67.3186 17.7212 66.7439 17.9559C66.1691 18.1906 65.5375 18.2488 64.9296 18.1231C64.3217 17.9974 63.765 17.6934 63.3305 17.25C63.241 17.1628 63.1698 17.0586 63.1211 16.9435C63.0725 16.8284 63.0473 16.7047 63.0471 16.5798C63.047 16.4548 63.0718 16.3311 63.1201 16.2158C63.1684 16.1006 63.2393 15.9962 63.3286 15.9087C63.4179 15.8213 63.5237 15.7526 63.6399 15.7066C63.7561 15.6607 63.8803 15.6384 64.0053 15.6412C64.1302 15.6439 64.2533 15.6716 64.3674 15.7227C64.4815 15.7737 64.5842 15.847 64.6695 15.9383C64.8139 16.0853 64.9923 16.1943 65.1889 16.2557C65.3856 16.3171 65.5943 16.3289 65.7967 16.2902C65.999 16.2514 66.1886 16.1632 66.3486 16.0335C66.5086 15.9038 66.6341 15.7365 66.7139 15.5466C66.7937 15.3567 66.8253 15.15 66.8059 14.9449C66.7865 14.7398 66.7167 14.5427 66.6028 14.3711C66.4889 14.1995 66.3343 14.0587 66.1528 13.9612C65.9713 13.8638 65.7685 13.8127 65.5625 13.8125C65.391 13.8125 65.2229 13.7654 65.0763 13.6765C64.9297 13.5875 64.8103 13.46 64.7311 13.3079C64.6519 13.1559 64.616 12.985 64.6271 12.8139C64.6383 12.6428 64.6962 12.478 64.7945 12.3375L65.9531 10.6875H64C63.7514 10.6875 63.5129 10.5887 63.3371 10.4129C63.1613 10.2371 63.0625 9.99864 63.0625 9.75C63.0625 9.50136 63.1613 9.2629 63.3371 9.08709C63.5129 8.91127 63.7514 8.8125 64 8.8125H67.75C67.9215 8.81253 68.0896 8.85958 68.2362 8.94854C68.3828 9.0375 68.5022 9.16496 68.5814 9.31705C68.6606 9.46914 68.6965 9.64004 68.6854 9.81114C68.6742 9.98225 68.6163 10.147 68.518 10.2875L67.0852 12.3344C67.5709 12.6054 67.9754 13.0011 68.2571 13.4807C68.5388 13.9603 68.6874 14.5063 68.6875 15.0625ZM60.25 4.4375C60.0014 4.4375 59.7629 4.53627 59.5871 4.71209C59.4113 4.8879 59.3125 5.12636 59.3125 5.375V9.125H53.0625V5.375C53.0625 5.12636 52.9637 4.8879 52.7879 4.71209C52.6121 4.53627 52.3736 4.4375 52.125 4.4375C51.8764 4.4375 51.6379 4.53627 51.4621 4.71209C51.2863 4.8879 51.1875 5.12636 51.1875 5.375V14.75C51.1875 14.9986 51.2863 15.2371 51.4621 15.4129C51.6379 15.5887 51.8764 15.6875 52.125 15.6875C52.3736 15.6875 52.6121 15.5887 52.7879 15.4129C52.9637 15.2371 53.0625 14.9986 53.0625 14.75V11H59.3125V14.75C59.3125 14.9986 59.4113 15.2371 59.5871 15.4129C59.7629 15.5887 60.0014 15.6875 60.25 15.6875C60.4986 15.6875 60.7371 15.5887 60.9129 15.4129C61.0887 15.2371 61.1875 14.9986 61.1875 14.75V5.375C61.1875 5.12636 61.0887 4.8879 60.9129 4.71209C60.7371 4.53627 60.4986 4.4375 60.25 4.4375Z" fill="#343330"/>
<path d="M19.4375 9.75V17.25C19.4375 17.4986 19.3387 17.7371 19.1629 17.9129C18.9871 18.0887 18.7486 18.1875 18.5 18.1875C18.2514 18.1875 18.0129 18.0887 17.8371 17.9129C17.6613 17.7371 17.5625 17.4986 17.5625 17.25V11.5016L17.1453 11.7812C17.0427 11.8496 16.9277 11.897 16.8067 11.9209C16.6858 11.9448 16.5613 11.9446 16.4405 11.9203C16.3196 11.8961 16.2047 11.8483 16.1023 11.7797C15.9999 11.711 15.9121 11.6229 15.8438 11.5203C15.7754 11.4177 15.728 11.3027 15.7041 11.1817C15.6802 11.0608 15.6804 10.9364 15.7047 10.8155C15.7289 10.6946 15.7767 10.5797 15.8453 10.4773C15.914 10.3749 16.0021 10.2871 16.1047 10.2188L17.9797 8.96875C18.121 8.87449 18.2852 8.82038 18.4548 8.8122C18.6245 8.80401 18.7931 8.84207 18.9428 8.92229C19.0925 9.00251 19.2176 9.12189 19.3047 9.26767C19.3919 9.41345 19.4378 9.58017 19.4375 9.75ZM12.25 4.4375C12.0014 4.4375 11.7629 4.53627 11.5871 4.71209C11.4113 4.8879 11.3125 5.12636 11.3125 5.375V9.125H5.0625V5.375C5.0625 5.12636 4.96373 4.8879 4.78791 4.71209C4.6121 4.53627 4.37364 4.4375 4.125 4.4375C3.87636 4.4375 3.6379 4.53627 3.46209 4.71209C3.28627 4.8879 3.1875 5.12636 3.1875 5.375V14.75C3.1875 14.9986 3.28627 15.2371 3.46209 15.4129C3.6379 15.5887 3.87636 15.6875 4.125 15.6875C4.37364 15.6875 4.6121 15.5887 4.78791 15.4129C4.96373 15.2371 5.0625 14.9986 5.0625 14.75V11H11.3125V14.75C11.3125 14.9986 11.4113 15.2371 11.5871 15.4129C11.7629 15.5887 12.0014 15.6875 12.25 15.6875C12.4986 15.6875 12.7371 15.5887 12.9129 15.4129C13.0887 15.2371 13.1875 14.9986 13.1875 14.75V5.375C13.1875 5.12636 13.0887 4.8879 12.9129 4.71209C12.7371 4.53627 12.4986 4.4375 12.25 4.4375Z" fill="#343330"/>
<path d="M93 14.75C93 14.9986 92.9012 15.2371 92.7254 15.4129C92.5496 15.5887 92.3111 15.6875 92.0625 15.6875V17.25C92.0625 17.4986 91.9637 17.7371 91.7879 17.9129C91.6121 18.0887 91.3736 18.1875 91.125 18.1875C90.8764 18.1875 90.6379 18.0887 90.4621 17.9129C90.2863 17.7371 90.1875 17.4986 90.1875 17.25V15.6875H87.375C87.2265 15.6874 87.0802 15.6521 86.948 15.5844C86.8159 15.5167 86.7017 15.4186 86.6149 15.2981C86.5281 15.1777 86.4711 15.0383 86.4487 14.8916C86.4263 14.7448 86.439 14.5948 86.4859 14.4539L88.3609 8.82891C88.4449 8.60009 88.6147 8.41297 88.8343 8.30722C89.0539 8.20147 89.306 8.1854 89.5373 8.26241C89.7685 8.33943 89.9607 8.50347 90.073 8.71977C90.1854 8.93608 90.2091 9.18762 90.1391 9.42109L88.6758 13.8125H90.1875V12.25C90.1875 12.0014 90.2863 11.7629 90.4621 11.5871C90.6379 11.4113 90.8764 11.3125 91.125 11.3125C91.3736 11.3125 91.6121 11.4113 91.7879 11.5871C91.9637 11.7629 92.0625 12.0014 92.0625 12.25V13.8125C92.3111 13.8125 92.5496 13.9113 92.7254 14.0871C92.9012 14.2629 93 14.5014 93 14.75ZM84.25 4.4375C84.0014 4.4375 83.7629 4.53627 83.5871 4.71209C83.4113 4.8879 83.3125 5.12636 83.3125 5.375V9.125H77.0625V5.375C77.0625 5.12636 76.9637 4.8879 76.7879 4.71209C76.6121 4.53627 76.3736 4.4375 76.125 4.4375C75.8764 4.4375 75.6379 4.53627 75.4621 4.71209C75.2863 4.8879 75.1875 5.12636 75.1875 5.375V14.75C75.1875 14.9986 75.2863 15.2371 75.4621 15.4129C75.6379 15.5887 75.8764 15.6875 76.125 15.6875C76.3736 15.6875 76.6121 15.5887 76.7879 15.4129C76.9637 15.2371 77.0625 14.9986 77.0625 14.75V11H83.3125V14.75C83.3125 14.9986 83.4113 15.2371 83.5871 15.4129C83.7629 15.5887 84.0014 15.6875 84.25 15.6875C84.4986 15.6875 84.7371 15.5887 84.9129 15.4129C85.0887 15.2371 85.1875 14.9986 85.1875 14.75V5.375C85.1875 5.12636 85.0887 4.8879 84.9129 4.71209C84.7371 4.53627 84.4986 4.4375 84.25 4.4375Z" fill="#343330"/>
<path d="M116.688 15.0625C116.688 15.8913 116.358 16.6862 115.772 17.2722C115.186 17.8583 114.391 18.1875 113.562 18.1875C113.149 18.1937 112.738 18.1167 112.354 17.961C111.971 17.8053 111.623 17.5741 111.33 17.2812C111.244 17.1933 111.176 17.0893 111.13 16.9751C111.084 16.8609 111.061 16.7387 111.063 16.6156C111.064 16.4925 111.089 16.3708 111.137 16.2576C111.186 16.1443 111.256 16.0416 111.344 15.9555C111.432 15.8693 111.536 15.8013 111.65 15.7553C111.764 15.7093 111.886 15.6863 112.009 15.6875C112.133 15.6888 112.254 15.7142 112.367 15.7625C112.481 15.8107 112.583 15.8808 112.67 15.9688C112.787 16.0836 112.927 16.1732 113.081 16.2323C113.234 16.2914 113.398 16.3187 113.562 16.3125C113.894 16.3125 114.212 16.1808 114.446 15.9464C114.681 15.712 114.812 15.394 114.812 15.0625C114.812 14.731 114.681 14.413 114.446 14.1786C114.212 13.9442 113.894 13.8125 113.562 13.8125C113.398 13.8063 113.234 13.8336 113.081 13.8927C112.927 13.9518 112.787 14.0414 112.67 14.1562C112.53 14.2991 112.348 14.3936 112.151 14.4259C111.954 14.4583 111.752 14.4268 111.574 14.3361C111.396 14.2454 111.251 14.1002 111.162 13.9217C111.072 13.7432 111.042 13.5407 111.075 13.3438L111.7 9.59375C111.737 9.37519 111.85 9.1768 112.019 9.03377C112.189 8.89075 112.403 8.81236 112.625 8.8125H115.75C115.999 8.8125 116.237 8.91127 116.413 9.08709C116.589 9.2629 116.688 9.50136 116.688 9.75C116.688 9.99864 116.589 10.2371 116.413 10.4129C116.237 10.5887 115.999 10.6875 115.75 10.6875H113.42L113.208 11.9555C113.326 11.9436 113.444 11.9376 113.562 11.9375C114.391 11.9375 115.186 12.2667 115.772 12.8528C116.358 13.4388 116.688 14.2337 116.688 15.0625ZM108.25 4.4375C108.001 4.4375 107.763 4.53627 107.587 4.71209C107.411 4.8879 107.312 5.12636 107.312 5.375V9.125H101.062V5.375C101.062 5.12636 100.964 4.8879 100.788 4.71209C100.612 4.53627 100.374 4.4375 100.125 4.4375C99.8764 4.4375 99.6379 4.53627 99.4621 4.71209C99.2863 4.8879 99.1875 5.12636 99.1875 5.375V14.75C99.1875 14.9986 99.2863 15.2371 99.4621 15.4129C99.6379 15.5887 99.8764 15.6875 100.125 15.6875C100.374 15.6875 100.612 15.5887 100.788 15.4129C100.964 15.2371 101.062 14.9986 101.062 14.75V11H107.312V14.75C107.312 14.9986 107.411 15.2371 107.587 15.4129C107.763 15.5887 108.001 15.6875 108.25 15.6875C108.499 15.6875 108.737 15.5887 108.913 15.4129C109.089 15.2371 109.188 14.9986 109.188 14.75V5.375C109.188 5.12636 109.089 4.8879 108.913 4.71209C108.737 4.53627 108.499 4.4375 108.25 4.4375Z" fill="#343330"/>
<path d="M135.834 10.9422C136.285 10.3932 136.571 9.72751 136.658 9.02256C136.745 8.3176 136.63 7.6024 136.327 6.96019C136.023 6.31797 135.543 5.77517 134.943 5.39496C134.343 5.01474 133.648 4.81275 132.937 4.8125H127.625C127.376 4.8125 127.138 4.91127 126.962 5.08709C126.786 5.2629 126.688 5.50136 126.688 5.75V17.625C126.688 17.8736 126.786 18.1121 126.962 18.2879C127.138 18.4637 127.376 18.5625 127.625 18.5625H133.875C134.776 18.5621 135.651 18.2622 136.363 17.7099C137.075 17.1576 137.583 16.3843 137.808 15.5117C138.032 14.639 137.96 13.7165 137.603 12.8893C137.246 12.0621 136.623 11.3771 135.834 10.9422ZM128.562 6.6875H132.937C133.435 6.6875 133.912 6.88504 134.263 7.23667C134.615 7.58831 134.812 8.06522 134.812 8.5625C134.812 9.05978 134.615 9.53669 134.263 9.88833C133.912 10.24 133.435 10.4375 132.937 10.4375H128.562V6.6875ZM133.875 16.6875H128.562V12.3125H133.875C134.455 12.3125 135.012 12.543 135.422 12.9532C135.832 13.3634 136.062 13.9198 136.062 14.5C136.062 15.0802 135.832 15.6366 135.422 16.0468C135.012 16.457 134.455 16.6875 133.875 16.6875Z" fill="#343330"/>
<path d="M161.938 6.375C161.938 6.62364 161.839 6.8621 161.663 7.03791C161.487 7.21373 161.249 7.3125 161 7.3125H158.551L155.426 16.6875H157.25C157.499 16.6875 157.737 16.7863 157.913 16.9621C158.089 17.1379 158.188 17.3764 158.188 17.625C158.188 17.8736 158.089 18.1121 157.913 18.2879C157.737 18.4637 157.499 18.5625 157.25 18.5625H151C150.751 18.5625 150.513 18.4637 150.337 18.2879C150.161 18.1121 150.062 17.8736 150.062 17.625C150.062 17.3764 150.161 17.1379 150.337 16.9621C150.513 16.7863 150.751 16.6875 151 16.6875H153.449L156.574 7.3125H154.75C154.501 7.3125 154.263 7.21373 154.087 7.03791C153.911 6.8621 153.812 6.62364 153.812 6.375C153.812 6.12636 153.911 5.8879 154.087 5.71209C154.263 5.53627 154.501 5.4375 154.75 5.4375H161C161.249 5.4375 161.487 5.53627 161.663 5.71209C161.839 5.8879 161.938 6.12636 161.938 6.375Z" fill="#343330"/>
<path d="M187.812 12C187.812 12.2486 187.714 12.4871 187.538 12.6629C187.362 12.8387 187.124 12.9375 186.875 12.9375H184.52C185.046 13.5435 185.328 14.3229 185.312 15.125C185.312 16.2539 184.702 17.3375 183.638 18.0977C182.656 18.8008 181.363 19.1875 180 19.1875C178.637 19.1875 177.344 18.8008 176.362 18.0977C175.298 17.3375 174.688 16.2539 174.688 15.125C174.688 14.8764 174.786 14.6379 174.962 14.4621C175.138 14.2863 175.376 14.1875 175.625 14.1875C175.874 14.1875 176.112 14.2863 176.288 14.4621C176.464 14.6379 176.562 14.8764 176.562 15.125C176.562 16.3109 178.137 17.3125 180 17.3125C181.863 17.3125 183.438 16.3109 183.438 15.125C183.438 14.1281 182.711 13.5484 180.676 12.9375H173.125C172.876 12.9375 172.638 12.8387 172.462 12.6629C172.286 12.4871 172.188 12.2486 172.188 12C172.188 11.7514 172.286 11.5129 172.462 11.3371C172.638 11.1613 172.876 11.0625 173.125 11.0625H186.875C187.124 11.0625 187.362 11.1613 187.538 11.3371C187.714 11.5129 187.812 11.7514 187.812 12ZM175.868 9.8125C176.117 9.8125 176.355 9.71373 176.531 9.53791C176.707 9.3621 176.805 9.12364 176.805 8.875C176.805 7.625 178.179 6.6875 180 6.6875C181.356 6.6875 182.451 7.20703 182.928 8.07656C183.054 8.28155 183.255 8.43013 183.487 8.49151C183.72 8.55289 183.968 8.52238 184.179 8.40629C184.389 8.29019 184.548 8.09742 184.62 7.86791C184.693 7.6384 184.674 7.38974 184.569 7.17344C183.76 5.69531 182.051 4.8125 180 4.8125C177.109 4.8125 174.93 6.55859 174.93 8.875C174.93 9.12364 175.029 9.3621 175.205 9.53791C175.381 9.71373 175.619 9.8125 175.868 9.8125Z" fill="#343330"/>
<path d="M210.25 4.1875H197.75C197.336 4.1875 196.938 4.35212 196.645 4.64515C196.352 4.93817 196.188 5.3356 196.188 5.75V18.25C196.188 18.6644 196.352 19.0618 196.645 19.3549C196.938 19.6479 197.336 19.8125 197.75 19.8125H210.25C210.664 19.8125 211.062 19.6479 211.355 19.3549C211.648 19.0618 211.812 18.6644 211.812 18.25V5.75C211.812 5.3356 211.648 4.93817 211.355 4.64515C211.062 4.35212 210.664 4.1875 210.25 4.1875ZM209.938 6.0625V13.25H208.009C207.803 13.2494 207.6 13.2896 207.41 13.3682C207.221 13.4468 207.049 13.5622 206.904 13.7078L205.484 15.125H202.516L201.096 13.7078C200.951 13.5622 200.779 13.4468 200.59 13.3682C200.4 13.2896 200.197 13.2494 199.991 13.25H198.062V6.0625H209.938ZM198.062 17.9375V15.125H199.859L201.277 16.5422C201.422 16.6881 201.594 16.8036 201.784 16.8822C201.974 16.9608 202.178 17.0009 202.384 17H205.616C205.822 17.0006 206.025 16.9604 206.215 16.8818C206.404 16.8032 206.576 16.6878 206.721 16.5422L208.141 15.125H209.938V17.9375H198.062Z" fill="#343330"/>
<path d="M222.024 10.1632L219.524 7.66325C219.436 7.57615 219.367 7.47266 219.32 7.3587C219.272 7.24475 219.248 7.12257 219.248 6.99918C219.248 6.8758 219.272 6.75362 219.32 6.63967C219.367 6.52571 219.436 6.42222 219.524 6.33512L222.024 3.83512C222.111 3.74792 222.215 3.67874 222.328 3.63155C222.442 3.58435 222.565 3.56006 222.688 3.56006C222.811 3.56006 222.933 3.58435 223.047 3.63155C223.161 3.67874 223.265 3.74792 223.352 3.83512C223.439 3.92233 223.508 4.02586 223.555 4.1398C223.603 4.25374 223.627 4.37586 223.627 4.49918C223.627 4.62251 223.603 4.74463 223.555 4.85857C223.508 4.97251 223.439 5.07604 223.352 5.16325L221.515 6.99997L223.35 8.83669C223.526 9.01281 223.625 9.25168 223.625 9.50075C223.625 9.74982 223.526 9.98869 223.35 10.1648C223.174 10.3409 222.935 10.4399 222.686 10.4399C222.437 10.4399 222.198 10.3409 222.022 10.1648L222.024 10.1632ZM225.774 10.1632C225.861 10.2506 225.964 10.32 226.078 10.3673C226.192 10.4146 226.314 10.439 226.438 10.439C226.561 10.439 226.683 10.4146 226.797 10.3673C226.911 10.32 227.015 10.2506 227.102 10.1632L229.602 7.66325C229.689 7.57615 229.759 7.47266 229.806 7.3587C229.853 7.24475 229.878 7.12257 229.878 6.99918C229.878 6.8758 229.853 6.75362 229.806 6.63967C229.759 6.52571 229.689 6.42222 229.602 6.33512L227.102 3.83512C226.926 3.659 226.687 3.56006 226.438 3.56006C226.189 3.56006 225.95 3.659 225.774 3.83512C225.598 4.01124 225.499 4.25011 225.499 4.49918C225.499 4.74826 225.598 4.98713 225.774 5.16325L227.609 6.99997L225.774 8.83669C225.687 8.92375 225.617 9.02715 225.57 9.14096C225.523 9.25477 225.499 9.37676 225.499 9.49997C225.499 9.62317 225.523 9.74516 225.57 9.85897C225.617 9.97278 225.687 10.0762 225.774 10.1632ZM233.625 4.81247H232.062C231.813 4.81247 231.575 4.91124 231.399 5.08705C231.223 5.26287 231.125 5.50133 231.125 5.74997C231.125 5.99861 231.223 6.23706 231.399 6.41288C231.575 6.58869 231.813 6.68747 232.062 6.68747H233.312V17.3125H222.687V12.9375C222.687 12.6888 222.588 12.4504 222.412 12.2746C222.237 12.0987 221.998 12 221.75 12C221.501 12 221.262 12.0987 221.087 12.2746C220.911 12.4504 220.812 12.6888 220.812 12.9375V17.625C220.812 18.0394 220.977 18.4368 221.27 18.7298C221.563 19.0228 221.96 19.1875 222.375 19.1875H233.625C234.039 19.1875 234.436 19.0228 234.729 18.7298C235.022 18.4368 235.187 18.0394 235.187 17.625V6.37497C235.187 5.96057 235.022 5.56314 234.729 5.27011C234.436 4.97709 234.039 4.81247 233.625 4.81247Z" fill="#343330"/>
<path d="M67.5 53.75H62.5C62.0149 53.75 61.5364 53.863 61.1025 54.0799C60.6685 54.2969 60.2911 54.6119 60 55C59.7089 54.6119 59.3315 54.2969 58.8975 54.0799C58.4636 53.863 57.9851 53.75 57.5 53.75H52.5C52.1685 53.75 51.8505 53.8817 51.6161 54.1161C51.3817 54.3505 51.25 54.6685 51.25 55V65C51.25 65.3315 51.3817 65.6495 51.6161 65.8839C51.8505 66.1183 52.1685 66.25 52.5 66.25H57.5C57.9973 66.25 58.4742 66.4475 58.8258 66.7992C59.1775 67.1508 59.375 67.6277 59.375 68.125C59.375 68.2908 59.4408 68.4497 59.5581 68.5669C59.6753 68.6842 59.8342 68.75 60 68.75C60.1658 68.75 60.3247 68.6842 60.4419 68.5669C60.5592 68.4497 60.625 68.2908 60.625 68.125C60.625 67.6277 60.8225 67.1508 61.1742 66.7992C61.5258 66.4475 62.0027 66.25 62.5 66.25H67.5C67.8315 66.25 68.1495 66.1183 68.3839 65.8839C68.6183 65.6495 68.75 65.3315 68.75 65V55C68.75 54.6685 68.6183 54.3505 68.3839 54.1161C68.1495 53.8817 67.8315 53.75 67.5 53.75ZM57.5 65H52.5V55H57.5C57.9973 55 58.4742 55.1975 58.8258 55.5492C59.1775 55.9008 59.375 56.3777 59.375 56.875V65.625C58.8346 65.2183 58.1763 64.9989 57.5 65ZM67.5 65H62.5C61.8237 64.9989 61.1654 65.2183 60.625 65.625V56.875C60.625 56.3777 60.8225 55.9008 61.1742 55.5492C61.5258 55.1975 62.0027 55 62.5 55H67.5V65ZM62.5 56.875H65.625C65.7908 56.875 65.9497 56.9408 66.0669 57.0581C66.1842 57.1753 66.25 57.3342 66.25 57.5C66.25 57.6658 66.1842 57.8247 66.0669 57.9419C65.9497 58.0592 65.7908 58.125 65.625 58.125H62.5C62.3342 58.125 62.1753 58.0592 62.0581 57.9419C61.9408 57.8247 61.875 57.6658 61.875 57.5C61.875 57.3342 61.9408 57.1753 62.0581 57.0581C62.1753 56.9408 62.3342 56.875 62.5 56.875ZM66.25 60C66.25 60.1658 66.1842 60.3247 66.0669 60.4419C65.9497 60.5592 65.7908 60.625 65.625 60.625H62.5C62.3342 60.625 62.1753 60.5592 62.0581 60.4419C61.9408 60.3247 61.875 60.1658 61.875 60C61.875 59.8342 61.9408 59.6753 62.0581 59.5581C62.1753 59.4408 62.3342 59.375 62.5 59.375H65.625C65.7908 59.375 65.9497 59.4408 66.0669 59.5581C66.1842 59.6753 66.25 59.8342 66.25 60ZM66.25 62.5C66.25 62.6658 66.1842 62.8247 66.0669 62.9419C65.9497 63.0592 65.7908 63.125 65.625 63.125H62.5C62.3342 63.125 62.1753 63.0592 62.0581 62.9419C61.9408 62.8247 61.875 62.6658 61.875 62.5C61.875 62.3342 61.9408 62.1753 62.0581 62.0581C62.1753 61.9408 62.3342 61.875 62.5 61.875H65.625C65.7908 61.875 65.9497 61.9408 66.0669 62.0581C66.1842 62.1753 66.25 62.3342 66.25 62.5Z" fill="#343330"/>
<path d="M16.375 58.75C16.375 58.9158 16.3092 59.0747 16.1919 59.1919C16.0747 59.3092 15.9158 59.375 15.75 59.375H10.75C10.5842 59.375 10.4253 59.3092 10.3081 59.1919C10.1908 59.0747 10.125 58.9158 10.125 58.75C10.125 58.5842 10.1908 58.4253 10.3081 58.3081C10.4253 58.1908 10.5842 58.125 10.75 58.125H15.75C15.9158 58.125 16.0747 58.1908 16.1919 58.3081C16.3092 58.4253 16.375 58.5842 16.375 58.75ZM15.75 60.625H10.75C10.5842 60.625 10.4253 60.6908 10.3081 60.8081C10.1908 60.9253 10.125 61.0842 10.125 61.25C10.125 61.4158 10.1908 61.5747 10.3081 61.6919C10.4253 61.8092 10.5842 61.875 10.75 61.875H15.75C15.9158 61.875 16.0747 61.8092 16.1919 61.6919C16.3092 61.5747 16.375 61.4158 16.375 61.25C16.375 61.0842 16.3092 60.9253 16.1919 60.8081C16.0747 60.6908 15.9158 60.625 15.75 60.625ZM19.5 53.75V66.25C19.5 66.5815 19.3683 66.8995 19.1339 67.1339C18.8995 67.3683 18.5815 67.5 18.25 67.5H5.75C5.41848 67.5 5.10054 67.3683 4.86612 67.1339C4.6317 66.8995 4.5 66.5815 4.5 66.25V53.75C4.5 53.4185 4.6317 53.1005 4.86612 52.8661C5.10054 52.6317 5.41848 52.5 5.75 52.5H18.25C18.5815 52.5 18.8995 52.6317 19.1339 52.8661C19.3683 53.1005 19.5 53.4185 19.5 53.75ZM5.75 66.25H7.625V53.75H5.75V66.25ZM18.25 66.25V53.75H8.875V66.25H18.25Z" fill="#343330"/>
<path d="M115.942 54.5578L113.442 52.0578C113.384 51.9997 113.315 51.9536 113.239 51.9222C113.163 51.8907 113.082 51.8745 113 51.8745C112.918 51.8745 112.837 51.8907 112.761 51.9222C112.685 51.9536 112.616 51.9997 112.558 52.0578L105.058 59.5578C105 59.6159 104.954 59.6849 104.922 59.7607C104.891 59.8366 104.875 59.9179 104.875 60V62.5C104.875 62.6658 104.941 62.8247 105.058 62.9419C105.175 63.0592 105.334 63.125 105.5 63.125H108C108.082 63.1251 108.163 63.109 108.239 63.0776C108.315 63.0462 108.384 63.0002 108.442 62.9422L115.942 55.4422C116 55.3841 116.046 55.3152 116.078 55.2393C116.109 55.1635 116.125 55.0821 116.125 55C116.125 54.9179 116.109 54.8365 116.078 54.7607C116.046 54.6848 116 54.6159 115.942 54.5578ZM107.741 61.875H106.125V60.2586L111.125 55.2586L112.741 56.875L107.741 61.875ZM113.625 55.9914L112.009 54.375L113 53.3836L114.616 55L113.625 55.9914ZM115.5 59.375V66.25C115.5 66.5815 115.368 66.8995 115.134 67.1339C114.899 67.3683 114.582 67.5 114.25 67.5H101.75C101.418 67.5 101.101 67.3683 100.866 67.1339C100.632 66.8995 100.5 66.5815 100.5 66.25V53.75C100.5 53.4185 100.632 53.1005 100.866 52.8661C101.101 52.6317 101.418 52.5 101.75 52.5H108.625C108.791 52.5 108.95 52.5659 109.067 52.6831C109.184 52.8003 109.25 52.9592 109.25 53.125C109.25 53.2908 109.184 53.4497 109.067 53.5669C108.95 53.6842 108.791 53.75 108.625 53.75H101.75V66.25H114.25V59.375C114.25 59.2092 114.316 59.0503 114.433 58.9331C114.55 58.8159 114.709 58.75 114.875 58.75C115.041 58.75 115.2 58.8159 115.317 58.9331C115.434 59.0503 115.5 59.2092 115.5 59.375Z" fill="#6D6D6D"/>
<path d="M90.875 53.8125H88.4928L87.3215 52.0559C87.2587 51.9619 87.1737 51.8848 87.0741 51.8314C86.9744 51.778 86.8631 51.7501 86.75 51.75H81.25C81.1369 51.7501 81.0256 51.778 80.9259 51.8314C80.8263 51.8848 80.7413 51.9619 80.6785 52.0559L79.5063 53.8125H77.125C76.578 53.8125 76.0534 54.0298 75.6666 54.4166C75.2798 54.8034 75.0625 55.328 75.0625 55.875V65.5C75.0625 66.047 75.2798 66.5716 75.6666 66.9584C76.0534 67.3452 76.578 67.5625 77.125 67.5625H90.875C91.422 67.5625 91.9466 67.3452 92.3334 66.9584C92.7202 66.5716 92.9375 66.047 92.9375 65.5V55.875C92.9375 55.328 92.7202 54.8034 92.3334 54.4166C91.9466 54.0298 91.422 53.8125 90.875 53.8125ZM91.5625 65.5C91.5625 65.6823 91.4901 65.8572 91.3611 65.9861C91.2322 66.1151 91.0573 66.1875 90.875 66.1875H77.125C76.9427 66.1875 76.7678 66.1151 76.6389 65.9861C76.5099 65.8572 76.4375 65.6823 76.4375 65.5V55.875C76.4375 55.6927 76.5099 55.5178 76.6389 55.3889C76.7678 55.2599 76.9427 55.1875 77.125 55.1875H79.875C79.9882 55.1876 80.0997 55.1597 80.1995 55.1063C80.2994 55.0529 80.3845 54.9757 80.4473 54.8816L81.6178 53.125H86.3813L87.5527 54.8816C87.6155 54.9757 87.7006 55.0529 87.8005 55.1063C87.9003 55.1597 88.0118 55.1876 88.125 55.1875H90.875C91.0573 55.1875 91.2322 55.2599 91.3611 55.3889C91.4901 55.5178 91.5625 55.6927 91.5625 55.875V65.5ZM87.4375 60.6875C87.4375 60.8698 87.3651 61.0447 87.2361 61.1736C87.1072 61.3026 86.9323 61.375 86.75 61.375H84.6875V63.4375C84.6875 63.6198 84.6151 63.7947 84.4861 63.9236C84.3572 64.0526 84.1823 64.125 84 64.125C83.8177 64.125 83.6428 64.0526 83.5139 63.9236C83.3849 63.7947 83.3125 63.6198 83.3125 63.4375V61.375H81.25C81.0677 61.375 80.8928 61.3026 80.7639 61.1736C80.6349 61.0447 80.5625 60.8698 80.5625 60.6875C80.5625 60.5052 80.6349 60.3303 80.7639 60.2014C80.8928 60.0724 81.0677 60 81.25 60H83.3125V57.9375C83.3125 57.7552 83.3849 57.5803 83.5139 57.4514C83.6428 57.3224 83.8177 57.25 84 57.25C84.1823 57.25 84.3572 57.3224 84.4861 57.4514C84.6151 57.5803 84.6875 57.7552 84.6875 57.9375V60H86.75C86.9323 60 87.1072 60.0724 87.2361 60.2014C87.3651 60.3303 87.4375 60.5052 87.4375 60.6875Z" fill="#6D6D6D"/>
<path d="M38.7358 60.6364C38.7358 60.781 38.6783 60.9198 38.5759 61.0221C38.4735 61.1244 38.3346 61.1818 38.1898 61.1818H33.8219C33.6771 61.1818 33.5382 61.1244 33.4358 61.0221C33.3334 60.9198 33.2759 60.781 33.2759 60.6364C33.2759 60.4917 33.3334 60.353 33.4358 60.2507C33.5382 60.1484 33.6771 60.0909 33.8219 60.0909H38.1898C38.3346 60.0909 38.4735 60.1484 38.5759 60.2507C38.6783 60.353 38.7358 60.4917 38.7358 60.6364ZM38.1898 62.2727H33.8219C33.6771 62.2727 33.5382 62.3302 33.4358 62.4325C33.3334 62.5348 33.2759 62.6735 33.2759 62.8182C33.2759 62.9628 33.3334 63.1016 33.4358 63.2039C33.5382 63.3062 33.6771 63.3636 33.8219 63.3636H38.1898C38.3346 63.3636 38.4735 63.3062 38.5759 63.2039C38.6783 63.1016 38.7358 62.9628 38.7358 62.8182C38.7358 62.6735 38.6783 62.5348 38.5759 62.4325C38.4735 62.3302 38.3346 62.2727 38.1898 62.2727ZM42.0117 55.1818V65.5455C42.0117 66.1241 41.7816 66.6791 41.3721 67.0882C40.9625 67.4974 40.407 67.7273 39.8278 67.7273H32.184C31.6047 67.7273 31.0492 67.4974 30.6397 67.0882C30.2301 66.6791 30 66.1241 30 65.5455V55.1818C30 54.8925 30.115 54.615 30.3198 54.4104C30.5246 54.2058 30.8024 54.0909 31.092 54.0909H32.184V53.5455C32.184 53.4008 32.2415 53.2621 32.3439 53.1598C32.4463 53.0575 32.5851 53 32.7299 53C32.8747 53 33.0136 53.0575 33.116 53.1598C33.2184 53.2621 33.2759 53.4008 33.2759 53.5455V54.0909H35.4599V53.5455C35.4599 53.4008 35.5174 53.2621 35.6198 53.1598C35.7222 53.0575 35.8611 53 36.0059 53C36.1507 53 36.2895 53.0575 36.3919 53.1598C36.4943 53.2621 36.5519 53.4008 36.5519 53.5455V54.0909H38.7358V53.5455C38.7358 53.4008 38.7933 53.2621 38.8957 53.1598C38.9981 53.0575 39.137 53 39.2818 53C39.4266 53 39.5655 53.0575 39.6679 53.1598C39.7703 53.2621 39.8278 53.4008 39.8278 53.5455V54.0909H40.9198C41.2094 54.0909 41.4871 54.2058 41.6919 54.4104C41.8967 54.615 42.0117 54.8925 42.0117 55.1818ZM40.9198 55.1818H39.8278V55.7273C39.8278 55.8719 39.7703 56.0107 39.6679 56.113C39.5655 56.2153 39.4266 56.2727 39.2818 56.2727C39.137 56.2727 38.9981 56.2153 38.8957 56.113C38.7933 56.0107 38.7358 55.8719 38.7358 55.7273V55.1818H36.5519V55.7273C36.5519 55.8719 36.4943 56.0107 36.3919 56.113C36.2895 56.2153 36.1507 56.2727 36.0059 56.2727C35.8611 56.2727 35.7222 56.2153 35.6198 56.113C35.5174 56.0107 35.4599 55.8719 35.4599 55.7273V55.1818H33.2759V55.7273C33.2759 55.8719 33.2184 56.0107 33.116 56.113C33.0136 56.2153 32.8747 56.2727 32.7299 56.2727C32.5851 56.2727 32.4463 56.2153 32.3439 56.113C32.2415 56.0107 32.184 55.8719 32.184 55.7273V55.1818H31.092V65.5455C31.092 65.8348 31.207 66.1123 31.4118 66.3168C31.6166 66.5214 31.8943 66.6364 32.184 66.6364H39.8278C40.1174 66.6364 40.3951 66.5214 40.5999 66.3168C40.8047 66.1123 40.9198 65.8348 40.9198 65.5455V55.1818Z" fill="#343330"/>
<path d="M47.4137 30L42 24.5863C41.815 24.3997 41.5947 24.2519 41.352 24.1512C41.1093 24.0506 40.849 23.9992 40.5863 24H26C25.4696 24 24.9609 24.2107 24.5858 24.5858C24.2107 24.9609 24 25.4696 24 26V46C24 46.5304 24.2107 47.0392 24.5858 47.4142C24.9609 47.7893 25.4696 48 26 48H46C46.5304 48 47.0391 47.7893 47.4142 47.4142C47.7893 47.0392 48 46.5304 48 46V31.4138C48.0008 31.151 47.9494 30.8907 47.8488 30.648C47.7482 30.4053 47.6003 30.1851 47.4137 30ZM41 46H31V39H41V46ZM46 46H43V39C43 38.4696 42.7893 37.9609 42.4142 37.5858C42.0391 37.2107 41.5304 37 41 37H31C30.4696 37 29.9609 37.2107 29.5858 37.5858C29.2107 37.9609 29 38.4696 29 39V46H26V26H40.5863L46 31.4138V46ZM40 29C40 29.2652 39.8946 29.5196 39.7071 29.7071C39.5196 29.8947 39.2652 30 39 30H32C31.7348 30 31.4804 29.8947 31.2929 29.7071C31.1054 29.5196 31 29.2652 31 29C31 28.7348 31.1054 28.4804 31.2929 28.2929C31.4804 28.1054 31.7348 28 32 28H39C39.2652 28 39.5196 28.1054 39.7071 28.2929C39.8946 28.4804 40 28.7348 40 29Z" fill="#439546"/>
<path d="M14.0003 25C14.0003 24.7348 14.1057 24.4804 14.2932 24.2929C14.4807 24.1054 14.7351 24 15.0003 24L22.0001 24C22.5305 24 23.0392 24.2107 23.4142 24.5858C23.7893 24.9609 24 25.4696 24 26L24 46C24 46.5304 23.7893 47.0391 23.4142 47.4142C23.0392 47.7893 22.5305 48 22.0001 48L15.0003 48C14.7351 48 14.4807 47.8946 14.2932 47.7071C14.1057 47.5196 14.0003 47.2652 14.0003 47C14.0003 46.7348 14.1057 46.4804 14.2932 46.2929C14.4807 46.1054 14.7351 46 15.0003 46L22.0001 46L22.0001 26L15.0003 26C14.7351 26 14.4807 25.8946 14.2932 25.7071C14.1057 25.5196 14.0003 25.2652 14.0003 25ZM0.293275 36.7075L5.29311 41.7075C5.48074 41.8951 5.73523 42.0006 6.00059 42.0006C6.26594 42.0006 6.52043 41.8951 6.70807 41.7075C6.8957 41.5199 7.00111 41.2654 7.00111 41C7.00111 40.7346 6.8957 40.4801 6.70807 40.2925L3.41442 37L15.0003 37C15.2655 37 15.5198 36.8946 15.7074 36.7071C15.8949 36.5196 16.0003 36.2652 16.0003 36C16.0003 35.7348 15.8949 35.4804 15.7074 35.2929C15.5198 35.1054 15.2655 35 15.0003 35L3.41442 35L6.70807 31.7075C6.8957 31.5199 7.00111 31.2654 7.00111 31C7.00111 30.7346 6.8957 30.4801 6.70807 30.2925C6.52043 30.1049 6.26594 29.9994 6.00059 29.9994C5.73523 29.9994 5.48074 30.1049 5.29311 30.2925L0.293275 35.2925C0.200301 35.3854 0.126544 35.4957 0.0762207 35.6171C0.0258991 35.7385 -7.54178e-07 35.8686 -7.46008e-07 36C-7.37838e-07 36.1314 0.0258992 36.2615 0.0762207 36.3829C0.126544 36.5043 0.200301 36.6146 0.293275 36.7075Z" fill="#676767"/>
<path d="M69 84C69 84.2652 68.921 84.5196 68.7803 84.7071C68.6397 84.8946 68.4489 85 68.25 85H51.75C51.5511 85 51.3603 84.8946 51.2197 84.7071C51.079 84.5196 51 84.2652 51 84C51 83.7348 51.079 83.4804 51.2197 83.2929C51.3603 83.1054 51.5511 83 51.75 83H68.25C68.4489 83 68.6397 83.1054 68.7803 83.2929C68.921 83.4804 69 83.7348 69 84ZM51.75 77H68.25C68.4489 77 68.6397 76.8946 68.7803 76.7071C68.921 76.5196 69 76.2652 69 76C69 75.7348 68.921 75.4804 68.7803 75.2929C68.6397 75.1054 68.4489 75 68.25 75H51.75C51.5511 75 51.3603 75.1054 51.2197 75.2929C51.079 75.4804 51 75.7348 51 76C51 76.2652 51.079 76.5196 51.2197 76.7071C51.3603 76.8946 51.5511 77 51.75 77ZM68.25 91H51.75C51.5511 91 51.3603 91.1054 51.2197 91.2929C51.079 91.4804 51 91.7348 51 92C51 92.2652 51.079 92.5196 51.2197 92.7071C51.3603 92.8946 51.5511 93 51.75 93H68.25C68.4489 93 68.6397 92.8946 68.7803 92.7071C68.921 92.5196 69 92.2652 69 92C69 91.7348 68.921 91.4804 68.7803 91.2929C68.6397 91.1054 68.4489 91 68.25 91Z" fill="#343330"/>
<path d="M44.7973 91.8188L40.469 87.4914C41.7236 85.9852 42.3491 84.0534 42.2156 82.0978C42.0821 80.1422 41.1998 78.3134 39.7522 76.9918C38.3046 75.6701 36.4032 74.9574 34.4436 75.002C32.4839 75.0465 30.6169 75.8448 29.2309 77.2309C27.8448 78.6169 27.0465 80.4839 27.002 82.4436C26.9574 84.4032 27.6701 86.3046 28.9918 87.7522C30.3134 89.1998 32.1422 90.0821 34.0978 90.2156C36.0534 90.3491 37.9852 89.7236 39.4914 88.469L43.8188 92.7973C43.883 92.8616 43.9593 92.9126 44.0433 92.9473C44.1272 92.9821 44.2172 93 44.3081 93C44.3989 93 44.4889 92.9821 44.5729 92.9473C44.6568 92.9126 44.7331 92.8616 44.7973 92.7973C44.8616 92.7331 44.9126 92.6568 44.9473 92.5729C44.9821 92.4889 45 92.3989 45 92.3081C45 92.2172 44.9821 92.1272 44.9473 92.0433C44.9126 91.9593 44.8616 91.883 44.7973 91.8188ZM28.4022 82.6262C28.4022 81.3952 28.7673 80.1919 29.4512 79.1684C30.1351 78.1448 31.1071 77.3471 32.2444 76.876C33.3817 76.4049 34.6331 76.2817 35.8405 76.5218C37.0478 76.762 38.1568 77.3548 39.0273 78.2252C39.8977 79.0956 40.4905 80.2047 40.7307 81.412C40.9708 82.6193 40.8476 83.8708 40.3765 85.0081C39.9054 86.1454 39.1077 87.1174 38.0841 87.8013C37.0606 88.4852 35.8572 88.8503 34.6262 88.8503C32.9761 88.8484 31.3941 88.1921 30.2272 87.0253C29.0604 85.8584 28.4041 84.2764 28.4022 82.6262Z" fill="#343330"/>
<path d="M18.2495 79.625H11.9995V76.5C11.9996 76.3763 11.963 76.2554 11.8943 76.1525C11.8257 76.0496 11.728 75.9695 11.6138 75.9221C11.4995 75.8748 11.3738 75.8624 11.2524 75.8865C11.1311 75.9107 11.0197 75.9703 10.9323 76.0578L3.43233 83.5578C3.37422 83.6159 3.32812 83.6848 3.29667 83.7607C3.26521 83.8365 3.24902 83.9179 3.24902 84C3.24902 84.0821 3.26521 84.1635 3.29667 84.2393C3.32812 84.3152 3.37422 84.3841 3.43233 84.4422L10.9323 91.9422C11.0197 92.0297 11.1311 92.0893 11.2524 92.1135C11.3738 92.1376 11.4995 92.1252 11.6138 92.0779C11.728 92.0305 11.8257 91.9504 11.8943 91.8475C11.963 91.7446 11.9996 91.6237 11.9995 91.5V88.375H18.2495C18.581 88.375 18.899 88.2433 19.1334 88.0089C19.3678 87.7745 19.4995 87.4565 19.4995 87.125V80.875C19.4995 80.5435 19.3678 80.2255 19.1334 79.9911C18.899 79.7567 18.581 79.625 18.2495 79.625ZM18.2495 87.125H11.3745C11.2088 87.125 11.0498 87.1909 10.9326 87.3081C10.8154 87.4253 10.7495 87.5842 10.7495 87.75V89.9914L4.75811 84L10.7495 78.0086V80.25C10.7495 80.4158 10.8154 80.5747 10.9326 80.6919C11.0498 80.8092 11.2088 80.875 11.3745 80.875H18.2495V87.125Z" fill="#343330"/>
<path d="M92 145C92 145.265 91.8946 145.52 91.7071 145.707C91.5196 145.895 91.2652 146 91 146H88V148H90C90.2652 148 90.5196 148.105 90.7071 148.293C90.8946 148.48 91 148.735 91 149C91 149.265 90.8946 149.52 90.7071 149.707C90.5196 149.895 90.2652 150 90 150H88V152C88 152.265 87.8946 152.52 87.7071 152.707C87.5196 152.895 87.2652 153 87 153C86.7348 153 86.4804 152.895 86.2929 152.707C86.1054 152.52 86 152.265 86 152V145C86 144.735 86.1054 144.48 86.2929 144.293C86.4804 144.105 86.7348 144 87 144H91C91.2652 144 91.5196 144.105 91.7071 144.293C91.8946 144.48 92 144.735 92 145ZM75.5 147.5C75.5 148.428 75.1313 149.318 74.4749 149.975C73.8185 150.631 72.9283 151 72 151H71V152C71 152.265 70.8946 152.52 70.7071 152.707C70.5196 152.895 70.2652 153 70 153C69.7348 153 69.4804 152.895 69.2929 152.707C69.1054 152.52 69 152.265 69 152V145C69 144.735 69.1054 144.48 69.2929 144.293C69.4804 144.105 69.7348 144 70 144H72C72.9283 144 73.8185 144.369 74.4749 145.025C75.1313 145.682 75.5 146.572 75.5 147.5ZM73.5 147.5C73.5 147.102 73.342 146.721 73.0607 146.439C72.7794 146.158 72.3978 146 72 146H71V149H72C72.3978 149 72.7794 148.842 73.0607 148.561C73.342 148.279 73.5 147.898 73.5 147.5ZM84.5 148.5C84.5 149.693 84.0259 150.838 83.182 151.682C82.3381 152.526 81.1935 153 80 153H78C77.7348 153 77.4804 152.895 77.2929 152.707C77.1054 152.52 77 152.265 77 152V145C77 144.735 77.1054 144.48 77.2929 144.293C77.4804 144.105 77.7348 144 78 144H80C81.1935 144 82.3381 144.474 83.182 145.318C84.0259 146.162 84.5 147.307 84.5 148.5ZM82.5 148.5C82.5 147.837 82.2366 147.201 81.7678 146.732C81.2989 146.263 80.663 146 80 146H79V151H80C80.663 151 81.2989 150.737 81.7678 150.268C82.2366 149.799 82.5 149.163 82.5 148.5ZM69 140V131C69 130.47 69.2107 129.961 69.5858 129.586C69.9609 129.211 70.4696 129 71 129H83C83.1314 129 83.2615 129.026 83.3829 129.076C83.5042 129.126 83.6146 129.2 83.7075 129.293L90.7075 136.293C90.8003 136.385 90.8739 136.496 90.9241 136.617C90.9743 136.739 91.0001 136.869 91 137V140C91 140.265 90.8946 140.52 90.7071 140.707C90.5196 140.895 90.2652 141 90 141C89.7348 141 89.4804 140.895 89.2929 140.707C89.1054 140.52 89 140.265 89 140V138H83C82.7348 138 82.4804 137.895 82.2929 137.707C82.1054 137.52 82 137.265 82 137V131H71V140C71 140.265 70.8946 140.52 70.7071 140.707C70.5196 140.895 70.2652 141 70 141C69.7348 141 69.4804 140.895 69.2929 140.707C69.1054 140.52 69 140.265 69 140ZM84 136H87.5863L84 132.414V136Z" fill="#343330"/>
<path d="M29.25 136.015C28.9684 135.696 28.6222 135.44 28.2342 135.265C27.8463 135.09 27.4256 135 27 135H20V133C20 131.674 19.4732 130.402 18.5355 129.464C17.5979 128.527 16.3261 128 15 128C14.8142 128 14.6321 128.051 14.474 128.149C14.3159 128.247 14.1881 128.386 14.105 128.553L9.3825 138H4C3.46957 138 2.96086 138.211 2.58579 138.586C2.21071 138.961 2 139.47 2 140V151C2 151.53 2.21071 152.039 2.58579 152.414C2.96086 152.789 3.46957 153 4 153H25.5C26.2309 153 26.9367 152.734 27.485 152.25C28.0332 151.767 28.3861 151.1 28.4775 150.375L29.9775 138.375C30.0307 137.953 29.9933 137.524 29.8679 137.117C29.7424 136.71 29.5318 136.334 29.25 136.015ZM4 140H9V151H4V140ZM27.9925 138.125L26.4925 150.125C26.462 150.367 26.3444 150.589 26.1617 150.75C25.9789 150.911 25.7436 151 25.5 151H11V139.236L15.5887 130.058C16.2689 130.194 16.8808 130.561 17.3204 131.098C17.76 131.634 18.0002 132.306 18 133V136C18 136.265 18.1054 136.52 18.2929 136.707C18.4804 136.895 18.7348 137 19 137H27C27.1419 137 27.2822 137.03 27.4115 137.088C27.5409 137.147 27.6563 137.232 27.7502 137.338C27.8441 137.445 27.9143 137.57 27.956 137.706C27.9978 137.841 28.0102 137.984 27.9925 138.125Z" fill="#343330"/>
<path d="M54.0003 146C53.3332 146 52.6729 146.133 52.0584 146.393C51.4439 146.653 50.8877 147.033 50.4228 147.511L44.6603 143.807C45.1136 142.645 45.1136 141.355 44.6603 140.192L50.4228 136.489C51.2884 137.375 52.4523 137.909 53.689 137.986C54.9257 138.063 56.147 137.679 57.1161 136.907C58.0853 136.135 58.7332 135.03 58.9343 133.807C59.1354 132.585 58.8754 131.331 58.2046 130.289C57.5338 129.247 56.5 128.492 55.3038 128.169C54.1075 127.846 52.8339 127.979 51.73 128.541C50.626 129.104 49.7703 130.057 49.3288 131.214C48.8873 132.372 48.8914 133.653 49.3403 134.807L43.5778 138.511C42.8839 137.799 41.9933 137.31 41.0198 137.106C40.0464 136.902 39.0344 136.994 38.1131 137.368C37.1918 137.743 36.4031 138.383 35.8479 139.208C35.2927 140.034 34.9961 141.005 34.9961 142C34.9961 142.994 35.2927 143.966 35.8479 144.791C36.4031 145.617 37.1918 146.257 38.1131 146.632C39.0344 147.006 40.0464 147.098 41.0198 146.894C41.9933 146.69 42.8839 146.201 43.5778 145.489L49.3403 149.192C48.9543 150.188 48.8971 151.281 49.1773 152.312C49.4574 153.342 50.0602 154.256 50.8972 154.919C51.7342 155.582 52.7615 155.96 53.8288 155.997C54.896 156.034 55.9471 155.728 56.828 155.125C57.709 154.521 58.3736 153.652 58.7245 152.643C59.0754 151.634 59.0942 150.54 58.7781 149.52C58.462 148.5 57.8276 147.608 56.9679 146.974C56.1081 146.341 55.0682 146 54.0003 146ZM54.0003 130C54.5936 130 55.1737 130.176 55.667 130.506C56.1604 130.835 56.5449 131.304 56.7719 131.852C56.999 132.4 57.0584 133.003 56.9427 133.585C56.8269 134.167 56.5412 134.702 56.1216 135.121C55.7021 135.541 55.1675 135.827 54.5856 135.942C54.0036 136.058 53.4004 135.999 52.8523 135.772C52.3041 135.545 51.8355 135.16 51.5059 134.667C51.1762 134.173 51.0003 133.593 51.0003 133C51.0003 132.204 51.3164 131.441 51.879 130.879C52.4416 130.316 53.2047 130 54.0003 130ZM40.0003 145C39.407 145 38.8269 144.824 38.3336 144.494C37.8402 144.165 37.4557 143.696 37.2287 143.148C37.0016 142.6 36.9422 141.997 37.0579 141.415C37.1737 140.833 37.4594 140.298 37.879 139.879C38.2985 139.459 38.8331 139.173 39.415 139.058C39.997 138.942 40.6002 139.001 41.1484 139.228C41.6965 139.455 42.1651 139.84 42.4947 140.333C42.8244 140.827 43.0003 141.407 43.0003 142C43.0003 142.796 42.6842 143.559 42.1216 144.121C41.559 144.684 40.7959 145 40.0003 145ZM54.0003 154C53.407 154 52.8269 153.824 52.3336 153.494C51.8402 153.165 51.4557 152.696 51.2287 152.148C51.0016 151.6 50.9422 150.997 51.0579 150.415C51.1737 149.833 51.4594 149.298 51.879 148.879C52.2985 148.459 52.8331 148.173 53.415 148.058C53.997 147.942 54.6002 148.001 55.1484 148.228C55.6965 148.455 56.1651 148.84 56.4947 149.333C56.8244 149.827 57.0003 150.407 57.0003 151C57.0003 151.796 56.6842 152.559 56.1216 153.121C55.559 153.684 54.7959 154 54.0003 154Z" fill="#343330"/>
</g>
<defs>
<clipPath id="clip0_77_2">
<rect width="246" height="171" fill="white"/>
</clipPath>
</defs>
</svg>
